<svg version="1.1" id="Layer_1" xmlns="http://www.w3.org/2000/svg" xmlns:xlink="http://www.w3.org/1999/xlink" x="0px" y="0px"
	 width="100%" viewBox="0 0 130 130" enable-background="new 0 0 130 130" xml:space="preserve">
<path fill="#FFFFFF" opacity="1.000000" stroke="none" 
	d="
M1.000000,49.000000 
	C1.000000,32.666672 1.000000,16.833342 1.000000,1.000009 
	C44.333317,1.000006 87.666634,1.000006 130.999969,1.000003 
	C130.999969,44.333309 130.999969,87.666618 130.999985,130.999939 
	C87.666702,130.999969 44.333405,130.999969 1.000052,130.999985 
	C1.000000,103.833336 1.000000,76.666664 1.000000,49.000000 
M70.446579,6.000000 
	C68.280624,6.000237 66.111420,5.923635 63.949299,6.014794 
	C56.819939,6.315381 54.420204,8.598492 53.830849,15.477103 
	C55.506268,16.110819 57.618748,16.291838 58.755352,17.439407 
	C66.505638,25.264488 74.973183,32.615723 81.436409,41.421158 
	C90.191414,53.348869 88.522964,67.370224 78.760178,75.580284 
	C76.087097,77.828224 73.365265,81.357368 68.890480,79.423569 
	C57.307480,74.417969 47.774010,66.642662 43.290829,54.869591 
	C39.123440,43.925804 42.866798,33.277996 48.919582,23.579905 
	C50.038532,21.787060 51.092178,19.953459 52.175964,18.138666 
	C51.777248,17.864712 51.378532,17.590757 50.979816,17.316801 
	C48.904217,19.798845 46.542534,22.096413 44.802479,24.794832 
	C37.223633,36.547882 34.187325,48.892303 41.040577,62.099178 
	C46.329472,72.291397 54.890926,79.383476 63.947208,86.048920 
	C68.440598,89.356071 72.447166,89.092361 76.686836,85.847420 
	C79.794983,83.468529 83.174011,81.427849 86.175804,78.928383 
	C100.647301,66.878571 107.164978,52.867092 100.684013,35.112347 
	C97.964508,27.662230 91.793671,21.545927 88.088264,14.360966 
	C84.358955,7.129631 78.376305,5.935244 70.446579,6.000000 
M62.053135,124.417336 
	C66.894417,116.370102 67.191750,108.272789 63.026951,99.741913 
	C59.797600,93.127136 54.256058,89.362221 48.172947,86.044411 
	C40.146847,81.666878 31.938375,77.601181 24.086779,72.933044 
	C17.284504,68.888779 16.502481,66.403748 18.542280,60.342472 
	C13.030747,60.921730 11.137529,63.352966 13.699750,67.960594 
	C15.783988,71.708656 18.860619,75.142189 22.159977,77.931076 
	C30.786539,85.222931 40.183834,91.640312 48.495697,99.255661 
	C55.485252,105.659515 60.030499,113.871239 60.068047,123.891464 
	C60.069389,124.250008 61.016563,124.605011 62.053135,124.417336 
M81.717728,116.554939 
	C83.579704,104.886719 89.033958,95.487831 98.795761,88.559837 
	C104.912308,84.218903 110.986229,79.739426 116.569565,74.751541 
	C120.704208,71.057854 119.541199,67.605942 114.013855,65.579750 
	C117.112030,71.297173 112.433174,73.703560 109.158318,75.804993 
	C103.283005,79.575104 96.788948,82.365639 90.668762,85.772652 
	C77.594238,93.051003 72.582039,103.995499 81.717728,116.554939 
z"/>
<path fill="#D5A619" opacity="1.000000" stroke="none" 
	d="
M70.919655,6.000000 
	C78.376305,5.935244 84.358955,7.129631 88.088264,14.360966 
	C91.793671,21.545927 97.964508,27.662230 100.684013,35.112347 
	C107.164978,52.867092 100.647301,66.878571 86.175804,78.928383 
	C83.174011,81.427849 79.794983,83.468529 76.686836,85.847420 
	C72.447166,89.092361 68.440598,89.356071 63.947208,86.048920 
	C54.890926,79.383476 46.329472,72.291397 41.040577,62.099178 
	C34.187325,48.892303 37.223633,36.547882 44.802479,24.794832 
	C46.542534,22.096413 48.904217,19.798845 50.979816,17.316801 
	C51.378532,17.590757 51.777248,17.864712 52.175964,18.138666 
	C51.092178,19.953459 50.038532,21.787060 48.919582,23.579905 
	C42.866798,33.277996 39.123440,43.925804 43.290829,54.869591 
	C47.774010,66.642662 57.307480,74.417969 68.890480,79.423569 
	C73.365265,81.357368 76.087097,77.828224 78.760178,75.580284 
	C88.522964,67.370224 90.191414,53.348869 81.436409,41.421158 
	C74.973183,32.615723 66.505638,25.264488 58.755352,17.439407 
	C57.618748,16.291838 55.506268,16.110819 53.830849,15.477103 
	C54.420204,8.598492 56.819939,6.315381 63.949299,6.014794 
	C66.111420,5.923635 68.280624,6.000237 70.919655,6.000000 
M81.724899,17.693054 
	C81.591888,17.580954 81.458878,17.468855 81.806274,16.778824 
	C84.307602,13.349771 83.449539,11.073318 79.449005,9.843622 
	C77.752586,9.322171 76.103050,8.415349 74.379578,8.257202 
	C68.563255,7.723495 62.742870,7.527349 56.884453,12.487538 
	C59.914436,13.733704 61.998005,14.590629 62.932339,14.974899 
	C63.866123,12.724247 64.280144,10.287098 65.025337,10.181241 
	C68.128403,9.740438 71.372093,9.719613 74.473503,10.169703 
	C75.458633,10.312671 76.871201,12.441006 76.798134,13.577912 
	C76.722916,14.748114 75.248161,16.503719 74.080032,16.800764 
	C70.675049,17.666616 67.117294,17.931713 63.342022,18.472057 
	C77.238869,29.496630 93.993004,38.191502 94.316689,59.188160 
	C103.266762,49.285542 95.439796,25.978230 86.011574,16.217810 
	C84.667030,16.854330 83.369377,17.468651 81.724899,17.693054 
z"/>
<path fill="#D5A619" opacity="1.000000" stroke="none" 
	d="
M61.788033,124.689499 
	C61.016563,124.605011 60.069389,124.250008 60.068047,123.891464 
	C60.030499,113.871239 55.485252,105.659515 48.495697,99.255661 
	C40.183834,91.640312 30.786539,85.222931 22.159977,77.931076 
	C18.860619,75.142189 15.783988,71.708656 13.699750,67.960594 
	C11.137529,63.352966 13.030747,60.921730 18.542280,60.342472 
	C16.502481,66.403748 17.284504,68.888779 24.086779,72.933044 
	C31.938375,77.601181 40.146847,81.666878 48.172947,86.044411 
	C54.256058,89.362221 59.797600,93.127136 63.026951,99.741913 
	C67.191750,108.272789 66.894417,116.370102 61.788033,124.689499 
z"/>
<path fill="#D5A619" opacity="1.000000" stroke="none" 
	d="
M81.354958,116.457535 
	C72.582039,103.995499 77.594238,93.051003 90.668762,85.772652 
	C96.788948,82.365639 103.283005,79.575104 109.158318,75.804993 
	C112.433174,73.703560 117.112030,71.297173 114.013855,65.579750 
	C119.541199,67.605942 120.704208,71.057854 116.569565,74.751541 
	C110.986229,79.739426 104.912308,84.218903 98.795761,88.559837 
	C89.033958,95.487831 83.579704,104.886719 81.354958,116.457535 
z"/>
<path fill="#FFFFFF" opacity="1.000000" stroke="none" 
	d="
M82.071724,18.082973 
	C83.369377,17.468651 84.667030,16.854330 86.011574,16.217810 
	C95.439796,25.978230 103.266762,49.285542 94.316689,59.188160 
	C93.993004,38.191502 77.238869,29.496630 63.342022,18.472057 
	C67.117294,17.931713 70.675049,17.666616 74.080032,16.800764 
	C75.248161,16.503719 76.722916,14.748114 76.798134,13.577912 
	C76.871201,12.441006 75.458633,10.312671 74.473503,10.169703 
	C71.372093,9.719613 68.128403,9.740438 65.025337,10.181241 
	C64.280144,10.287098 63.866123,12.724247 62.932339,14.974899 
	C61.998005,14.590629 59.914436,13.733704 56.884453,12.487538 
	C62.742870,7.527349 68.563255,7.723495 74.379578,8.257202 
	C76.103050,8.415349 77.752586,9.322171 79.449005,9.843622 
	C83.449539,11.073318 84.307602,13.349771 81.350395,17.243572 
	C80.779640,18.072903 80.664764,18.437485 80.549896,18.802067 
	C81.057175,18.562370 81.564445,18.322674 82.071724,18.082973 
z"/>
<path fill="#D5A619" opacity="1.000000" stroke="none" 
	d="
M81.898315,17.888016 
	C81.564445,18.322674 81.057175,18.562370 80.549896,18.802067 
	C80.664764,18.437485 80.779640,18.072903 81.110199,17.532537 
	C81.458878,17.468855 81.591888,17.580954 81.898315,17.888016 
z"/>
</svg>